<?xml version="1.0" standalone="no"?>
<!DOCTYPE svg PUBLIC "-//W3C//DTD SVG 20010904//EN"
 "http://www.w3.org/TR/2001/REC-SVG-20010904/DTD/svg10.dtd">
<svg version="1.0" xmlns="http://www.w3.org/2000/svg"
 width="200.000000pt" height="200.000000pt" viewBox="0 0 200.000000 200.000000"
 preserveAspectRatio="xMidYMid meet">
<metadata>
Created by potrace 1.11, written by Peter Selinger 2001-2013
</metadata>
<g transform="translate(0.000000,200.000000) scale(0.100000,-0.100000)"
fill="#000000" stroke="none">
<path d="M181 1426 c-11 -34 -34 -108 -51 -166 -45 -151 -99 -328 -115 -382
-8 -25 -13 -52 -11 -60 2 -7 7 -25 10 -40 10 -44 20 -33 39 40 10 37 47 171
82 297 35 127 70 251 77 277 l13 46 40 -13 c49 -17 60 -31 157 -192 42 -70 83
-136 91 -146 12 -18 23 -10 158 104 79 68 155 134 169 146 65 60 161 106 175
83 3 -5 -8 -57 -25 -117 -16 -59 -50 -183 -74 -274 -51 -190 -75 -247 -123
-294 -31 -30 -125 -66 -138 -53 -2 2 5 37 16 78 11 41 21 82 23 90 3 8 16 55
30 104 15 50 25 94 24 98 -3 7 -78 -52 -258 -203 l-35 -29 -15 21 c-8 12 -34
58 -58 103 -24 45 -50 91 -58 104 -17 25 -44 30 -44 6 0 -23 -84 -356 -114
-449 -14 -43 -23 -81 -21 -83 2 -2 44 15 92 39 l88 44 390 1 c363 1 700 10
715 19 4 2 24 5 45 7 23 1 63 17 99 39 77 47 126 115 154 218 34 121 93 344
97 364 4 17 -12 18 -279 16 -156 0 -288 -4 -294 -8 -18 -11 -22 -87 -5 -110
13 -19 24 -21 131 -21 102 0 124 -3 162 -22 50 -26 90 -89 90 -143 0 -89 -78
-203 -174 -253 -49 -26 -57 -27 -231 -29 -235 -3 -259 7 -270 118 l-4 37 187
0 c272 0 260 -1 287 26 19 19 22 31 18 57 -6 43 -16 48 -83 50 -148 2 -209 14
-255 50 -87 69 -72 214 32 309 55 51 112 78 189 87 33 5 195 8 362 7 325 0
331 1 192 44 -63 20 -90 21 -872 20 l-807 -1 -20 -61z"/>
</g>
</svg>
